<svg width="24" height="24" viewBox="0 0 24 24" fill="none" xmlns="http://www.w3.org/2000/svg">
<path d="M18.375 4H5.625C4.72754 4 4 4.72754 4 5.625V18.375C4 19.2725 4.72754 20 5.625 20H18.375C19.2725 20 20 19.2725 20 18.375V5.625C20 4.72754 19.2725 4 18.375 4Z" fill="#9747FF" fill-opacity="0.25"/>
<path d="M15.3162 13.4516C15.2573 13.2546 15.1779 13.0644 15.0793 12.8841C14.9737 12.708 14.8347 12.5542 14.6703 12.4313C14.5213 12.3126 14.366 12.2022 14.205 12.1006C14.02 11.9946 13.8259 11.9053 13.625 11.8341C13.3772 11.7403 13.185 11.6719 13.0531 11.6303C12.9212 11.5888 12.719 11.5278 12.455 11.4503C12.085 11.3425 11.7893 11.2453 11.5762 11.1613C11.3339 11.0627 11.0984 10.9478 10.8715 10.8175C10.6215 10.6778 10.4397 10.5066 10.3265 10.3084C10.2134 10.1103 10.1556 9.87094 10.1556 9.59438C10.1556 9.10969 10.3356 8.74031 10.7062 8.465C11.0768 8.18969 11.5297 8.04938 12.0515 8.04938C12.8422 8.04938 13.4031 8.21375 13.7193 8.53844L13.9068 9.84594H14.8578L14.8725 7.86906L14.8531 7.85063C14.1937 7.21906 13.2281 6.89906 11.9815 6.89906C11.1147 6.89906 10.3565 7.15531 9.73153 7.66094C9.10653 8.16656 8.78185 8.81156 8.78185 9.56719C8.78185 10.045 8.86653 10.465 9.03185 10.8172C9.2013 11.1726 9.46615 11.4739 9.79685 11.6875C10.0835 11.8824 10.3878 12.0498 10.7059 12.1875C10.975 12.2984 11.3381 12.4231 11.785 12.5575C11.8321 12.5769 11.8807 12.5927 11.9303 12.6047C12.3525 12.7256 12.6747 12.8253 12.8881 12.9006C13.1096 12.9807 13.3221 13.0839 13.5218 13.2088C13.725 13.3338 13.8656 13.4838 13.9359 13.6538C14.0062 13.8238 14.0468 14.0572 14.0468 14.335C14.0468 14.8222 13.8612 15.2134 13.4953 15.4978C13.1243 15.7863 12.6203 15.9353 11.9953 15.9453C10.984 15.9531 10.214 15.6953 9.7106 15.1756L9.5306 13.8006H8.57935V15.8547L8.59653 15.8728C8.90903 16.1997 9.3656 16.4894 9.95122 16.7331C10.53 16.9758 11.1514 17.1008 11.779 17.1006C12.93 17.1006 13.8331 16.8431 14.464 16.3356C15.095 15.8281 15.4206 15.0959 15.4206 14.17C15.4222 13.9266 15.387 13.6844 15.3162 13.4516Z" fill="#9747FF"/>
</svg>
