<svg width="24" height="24" viewBox="0 0 24 24" fill="none" xmlns="http://www.w3.org/2000/svg">
<path fill-rule="evenodd" clip-rule="evenodd" d="M12 23.25L9.625 18.5H14.375L12 23.25Z" fill="#9747FF" fill-opacity="0.25"/>
<path fill-rule="evenodd" clip-rule="evenodd" d="M12 10.2841L7.72655 19.4649C7.5854 19.7591 7.51212 19.9979 7.20146 19.9979L4.37873 19.9992C3.97407 19.9992 3.75103 19.8938 3.9473 19.4662L10.8498 4.43365C10.9906 4.18371 11.0782 4 11.3892 4H12.6111C12.9218 4 13.0094 4.18371 13.1506 4.43365L20.0524 19.4662C20.2493 19.8938 20.0259 19.9992 19.6213 19.9992L16.7985 19.9979C16.4879 19.9979 16.4146 19.7591 16.2734 19.4649L12 10.2841Z" fill="#9747FF"/>
</svg>
