<svg xmlns="http://www.w3.org/2000/svg" viewBox="0 0 24 24" width="1em" height="1em"><path fill-rule="evenodd" clip-rule="evenodd" d="M7.72 3.086A2 2 0 0 1 9.134 2.5h5.732a2 2 0 0 1 1.414.586l4.634 4.634a2 2 0 0 1 .586 1.414v5.732a2 2 0 0 1-.586 1.414l-4.634 4.634a2 2 0 0 1-1.414.586H9.134a2 2 0 0 1-1.414-.586L3.086 16.28a2 2 0 0 1-.586-1.414V9.134a2 2 0 0 1 .586-1.414L7.72 3.086Zm5.53 14.164a1.25 1.25 0 1 1-2.5 0 1.25 1.25 0 0 1 2.5 0ZM12 6c-.814 0-1.46.685-1.412 1.497l.353 6.005a1.06 1.06 0 0 0 2.118 0l.353-6.005A1.414 1.414 0 0 0 12 6Z"/></svg>