<svg xmlns="http://www.w3.org/2000/svg" viewBox="0 0 24 24" width="1em" height="1em"><path d="M8.06 3.44A1.5 1.5 0 0 1 9.122 3h5.758a1.5 1.5 0 0 1 1.06.44l4.622 4.62A1.5 1.5 0 0 1 21 9.122v5.758a1.5 1.5 0 0 1-.44 1.06l-4.62 4.622a1.5 1.5 0 0 1-1.061.439H9.12a1.5 1.5 0 0 1-1.06-.44l-4.622-4.62A1.5 1.5 0 0 1 3 14.878V9.12c0-.398.158-.779.44-1.06l4.62-4.622Z" stroke-opacity=".25" stroke-width="1.25"/><circle cx="12" cy="17" r="1"/><path d="M10.815 7.748a1.187 1.187 0 1 1 2.37 0l-.308 5.92a.878.878 0 0 1-1.754 0l-.308-5.92Z"/></svg>