<svg xmlns="http://www.w3.org/2000/svg" viewBox="0 0 24 24" width="1em" height="1em"><mask id="a"><path fill-rule="evenodd" clip-rule="evenodd" d="M22 12c0 5.523-4.477 10-10 10S2 17.523 2 12 6.477 2 12 2s10 4.477 10 10Zm-8.75 5.25a1.25 1.25 0 1 1-2.5 0 1.25 1.25 0 0 1 2.5 0ZM12 6c-.814 0-1.46.685-1.412 1.497l.353 6.005a1.06 1.06 0 0 0 2.118 0l.353-6.005A1.414 1.414 0 0 0 12 6Z"/></mask><path fill-rule="evenodd" clip-rule="evenodd" d="M22 12c0 5.523-4.477 10-10 10S2 17.523 2 12 6.477 2 12 2s10 4.477 10 10Zm-8.75 5.25a1.25 1.25 0 1 1-2.5 0 1.25 1.25 0 0 1 2.5 0ZM12 6c-.814 0-1.46.685-1.412 1.497l.353 6.005a1.06 1.06 0 0 0 2.118 0l.353-6.005A1.414 1.414 0 0 0 12 6Z"/><path d="m10.588 7.497-1.497.088 1.497-.088Zm.353 6.005 1.498-.088-1.498.088Zm2.118 0 1.497.088-1.497-.088Zm.353-6.005 1.497.088-1.497-.088ZM12 23.5c6.351 0 11.5-5.149 11.5-11.5h-3a8.5 8.5 0 0 1-8.5 8.5v3ZM.5 12c0 6.351 5.149 11.5 11.5 11.5v-3A8.5 8.5 0 0 1 3.5 12h-3ZM12 .5C5.649.5.5 5.649.5 12h3A8.5 8.5 0 0 1 12 3.5v-3ZM23.5 12C23.5 5.649 18.351.5 12 .5v3a8.5 8.5 0 0 1 8.5 8.5h3ZM12 20a2.75 2.75 0 0 0 2.75-2.75h-3A.25.25 0 0 1 12 17v3Zm-2.75-2.75A2.75 2.75 0 0 0 12 20v-3a.25.25 0 0 1 .25.25h-3ZM12 14.5a2.75 2.75 0 0 0-2.75 2.75h3a.25.25 0 0 1-.25.25v-3Zm2.75 2.75A2.75 2.75 0 0 0 12 14.5v3a.25.25 0 0 1-.25-.25h3Zm-2.665-9.84A.086.086 0 0 1 12 7.5v-3a2.914 2.914 0 0 0-2.91 3.085l2.995-.176Zm.354 6.004-.354-6.005-2.994.176.353 6.005 2.995-.176ZM12 13a.44.44 0 0 1 .439.414l-2.995.176A2.56 2.56 0 0 0 12 16v-3Zm-.439.414A.44.44 0 0 1 12 13v3a2.56 2.56 0 0 0 2.556-2.41l-2.995-.176Zm.354-6.005-.354 6.005 2.995.176.353-6.005-2.995-.176ZM12 7.5a.086.086 0 0 1-.085-.09l2.994.175A2.914 2.914 0 0 0 12 4.5v3Z" mask="url(#a)"/></svg>