<svg xmlns="http://www.w3.org/2000/svg" viewBox="0 0 24 24" width="1em" height="1em"><path fill-rule="evenodd" clip-rule="evenodd" d="M22 12c0 5.523-4.477 10-10 10S2 17.523 2 12 6.477 2 12 2s10 4.477 10 10Zm-8.75 5.25a1.25 1.25 0 1 1-2.5 0 1.25 1.25 0 0 1 2.5 0ZM9.986 9.16c.055-.324.258-.607.643-.827.397-.227.94-.353 1.505-.33.566.022 1.058.19 1.383.44.297.228.483.54.483 1.006 0 .16-.06.35-.265.618-.215.283-.517.562-.908.918l-.03.028c-.354.322-.787.715-1.124 1.159C11.314 12.642 11 13.25 11 14a1 1 0 1 0 2 0c0-.16.06-.35.265-.618.215-.283.517-.562.908-.918l.03-.027c.354-.322.787-.716 1.124-1.16.359-.47.673-1.078.673-1.828 0-1.126-.506-2.009-1.263-2.591-.727-.56-1.648-.82-2.524-.854-.88-.035-1.806.152-2.577.593-.784.449-1.446 1.19-1.622 2.23a1 1 0 1 0 1.972.334Z"/></svg>