<svg width="24" height="24" viewBox="0 0 24 24" fill="none" xmlns="http://www.w3.org/2000/svg">
<path fill-rule="evenodd" clip-rule="evenodd" d="M3.5 3C2.67157 3 2 3.67157 2 4.5V19.5C2 20.3284 2.67157 21 3.5 21H20.5C21.3284 21 22 20.3284 22 19.5V4.5C22 3.67157 21.3284 3 20.5 3H3.5ZM15.8303 10.3832C16.0426 10.2953 16.2702 10.25 16.5 10.25C16.7298 10.25 16.9574 10.2953 17.1697 10.3832C17.382 10.4712 17.5749 10.6001 17.7374 10.7626C17.8999 10.9251 18.0288 11.118 18.1168 11.3303C18.2047 11.5426 18.25 11.7702 18.25 12C18.25 12.2298 18.2047 12.4574 18.1168 12.6697C18.0288 12.882 17.8999 13.0749 17.7374 13.2374C17.5749 13.3999 17.382 13.5288 17.1697 13.6168C16.9574 13.7047 16.7298 13.75 16.5 13.75C16.2702 13.75 16.0426 13.7047 15.8303 13.6168C15.618 13.5288 15.4251 13.3999 15.2626 13.2374C15.1001 13.0749 14.9712 12.882 14.8832 12.6697C14.7953 12.4574 14.75 12.2298 14.75 12C14.75 11.7702 14.7953 11.5426 14.8832 11.3303C14.9712 11.118 15.1001 10.9251 15.2626 10.7626C15.4251 10.6001 15.618 10.4712 15.8303 10.3832ZM19.5026 10.7563C19.6659 11.1506 19.75 11.5732 19.75 12C19.75 12.4268 19.6659 12.8494 19.5026 13.2437C19.3393 13.638 19.0999 13.9963 18.7981 14.2981C18.4963 14.5999 18.138 14.8393 17.7437 15.0026C17.3494 15.1659 16.9268 15.25 16.5 15.25C16.0732 15.25 15.6506 15.1659 15.2563 15.0026C14.862 14.8393 14.5037 14.5999 14.2019 14.2981C13.9001 13.9963 13.6607 13.638 13.4974 13.2437C13.3341 12.8494 13.25 12.4268 13.25 12C13.25 11.5732 13.3341 11.1506 13.4974 10.7563C13.6607 10.362 13.9001 10.0037 14.2019 9.7019C14.5037 9.40011 14.862 9.16072 15.2563 8.99739C15.6506 8.83406 16.0732 8.75 16.5 8.75C16.9268 8.75 17.3494 8.83406 17.7437 8.99739C18.138 9.16072 18.4963 9.40011 18.7981 9.7019C19.0999 10.0037 19.3393 10.362 19.5026 10.7563ZM4.5 4.75C4.91421 4.75 5.25 5.08579 5.25 5.5V8C5.25 8.41421 4.91421 8.75 4.5 8.75C4.08579 8.75 3.75 8.41421 3.75 8V5.5C3.75 5.08579 4.08579 4.75 4.5 4.75ZM5.25 16C5.25 15.5858 4.91421 15.25 4.5 15.25C4.08579 15.25 3.75 15.5858 3.75 16V18.5C3.75 18.9142 4.08579 19.25 4.5 19.25C4.91421 19.25 5.25 18.9142 5.25 18.5V16Z" fill="#9747FF"/>
</svg>
