<svg width="24" height="24" viewBox="0 0 24 24" fill="none" xmlns="http://www.w3.org/2000/svg">
<path d="M15.7199 13.5C15.9057 13.5 16.0923 13.5243 16.2687 13.5829C19.3407 14.605 19.4921 17.3072 19.4996 20.4996C19.5003 20.7757 19.2761 21 19 21H5.00001C4.72386 21 4.49974 20.7757 4.50039 20.4996C4.50789 17.3072 4.65931 14.605 7.73134 13.5829C7.90767 13.5243 8.09428 13.5 8.28011 13.5H15.7199Z" fill="#9747FF"/>
<path fill-rule="evenodd" clip-rule="evenodd" d="M18.5405 10.5H5.45972C6.46614 13.1314 9.01489 15 12.0001 15C14.9853 15 17.534 13.1314 18.5405 10.5Z" fill="#9747FF"/>
<path fill-rule="evenodd" clip-rule="evenodd" d="M19 8.053C19.0001 8.03535 19.0002 8.01768 19.0002 8C19.0002 7.98232 19.0001 7.96465 19 7.947V8.053ZM5.67383 5H18.3266C17.2031 2.63505 14.7926 1 12.0002 1C9.2078 1 6.79729 2.63505 5.67383 5Z" fill="#9747FF"/>
<circle cx="12" cy="8" r="6" stroke="#9747FF" stroke-width="2"/>
</svg>
