<svg width="24" height="24" viewBox="0 0 24 24" fill="none" xmlns="http://www.w3.org/2000/svg">
<path fill-rule="evenodd" clip-rule="evenodd" d="M6.75 4.25C5.64543 4.25 4.75 5.14543 4.75 6.25V18.25C4.75 19.3546 5.64543 20.25 6.75 20.25H18.75C19.8546 20.25 20.75 19.3546 20.75 18.25V6.25C20.75 5.14543 19.8546 4.25 18.75 4.25H6.75ZM17.0974 10.319C17.4116 9.98902 17.3989 9.46682 17.069 9.15259C16.739 8.83836 16.2168 8.85109 15.9026 9.18103L11.5541 13.747L10.1442 11.9846C9.85958 11.6288 9.34042 11.5712 8.98463 11.8558C8.62884 12.1404 8.57115 12.6596 8.85578 13.0154L10.8558 15.5154C11.0046 15.7014 11.2265 15.814 11.4644 15.8242C11.7024 15.8345 11.9332 15.7414 12.0974 15.569L17.0974 10.319Z" fill="#9747FF"/>
<path d="M17.25 3V3C17.25 2.30964 16.6904 1.75 16 1.75H4.25C3.14543 1.75 2.25 2.64543 2.25 3.75L2.25 15.5C2.25 16.1904 2.80964 16.75 3.5 16.75V16.75" stroke="#9747FF" stroke-width="1.25" stroke-linecap="round" stroke-linejoin="round"/>
</svg>
