<svg width="24" height="24" viewBox="0 0 24 24" fill="none" xmlns="http://www.w3.org/2000/svg">
<path d="M18.25 15.433C18.7141 15.1651 19.2859 15.1651 19.75 15.433L21.2811 16.317C21.7452 16.5849 22.0311 17.0801 22.0311 17.616V19.384C22.0311 19.9199 21.7452 20.4151 21.2811 20.683L19.75 21.567C19.2859 21.8349 18.7141 21.8349 18.25 21.567L16.7189 20.683C16.2548 20.4151 15.9689 19.9199 15.9689 19.384V17.616C15.9689 17.0801 16.2548 16.5849 16.7189 16.317L18.25 15.433Z" fill="#9747FF"/>
<path d="M11.25 15.433C11.7141 15.1651 12.2859 15.1651 12.75 15.433L14.2811 16.317C14.7452 16.5849 15.0311 17.0801 15.0311 17.616V19.384C15.0311 19.9199 14.7452 20.4151 14.2811 20.683L12.75 21.567C12.2859 21.8349 11.7141 21.8349 11.25 21.567L9.71891 20.683C9.25481 20.4151 8.96891 19.9199 8.96891 19.384V17.616C8.96891 17.0801 9.25481 16.5849 9.71891 16.317L11.25 15.433Z" fill="#9747FF"/>
<path d="M4.25 15.433C4.7141 15.1651 5.2859 15.1651 5.75 15.433L7.28109 16.317C7.74519 16.5849 8.03109 17.0801 8.03109 17.616V19.384C8.03109 19.9199 7.74519 20.4151 7.28109 20.683L5.75 21.567C5.2859 21.8349 4.7141 21.8349 4.25 21.567L2.71891 20.683C2.25481 20.4151 1.96891 19.9199 1.96891 19.384V17.616C1.96891 17.0801 2.25481 16.5849 2.71891 16.317L4.25 15.433Z" fill="#9747FF"/>
<path d="M14.75 9.43301C15.2141 9.16506 15.7859 9.16506 16.25 9.43301L17.7811 10.317C18.2452 10.5849 18.5311 11.0801 18.5311 11.616V13.384C18.5311 13.9199 18.2452 14.4151 17.7811 14.683L16.25 15.567C15.7859 15.8349 15.2141 15.8349 14.75 15.567L13.2189 14.683C12.7548 14.4151 12.4689 13.9199 12.4689 13.384V11.616C12.4689 11.0801 12.7548 10.5849 13.2189 10.317L14.75 9.43301Z" fill="#9747FF"/>
<path d="M7.75 9.43301C8.2141 9.16506 8.7859 9.16506 9.25 9.43301L10.7811 10.317C11.2452 10.5849 11.5311 11.0801 11.5311 11.616V13.384C11.5311 13.9199 11.2452 14.4151 10.7811 14.683L9.25 15.567C8.7859 15.8349 8.2141 15.8349 7.75 15.567L6.21891 14.683C5.75481 14.4151 5.46891 13.9199 5.46891 13.384V11.616C5.46891 11.0801 5.75481 10.5849 6.21891 10.317L7.75 9.43301Z" fill="#9747FF"/>
<path d="M11.25 3.43301C11.7141 3.16506 12.2859 3.16506 12.75 3.43301L14.2811 4.31699C14.7452 4.58494 15.0311 5.08013 15.0311 5.61603V7.38397C15.0311 7.91987 14.7452 8.41506 14.2811 8.68301L12.75 9.56699C12.2859 9.83494 11.7141 9.83494 11.25 9.56699L9.71891 8.68301C9.25481 8.41506 8.96891 7.91987 8.96891 7.38397V5.61603C8.96891 5.08013 9.25481 4.58494 9.71891 4.31699L11.25 3.43301Z" fill="#9747FF"/>
</svg>
