<svg width="24" height="24" viewBox="0 0 24 24" fill="none" xmlns="http://www.w3.org/2000/svg">
<path fill-rule="evenodd" clip-rule="evenodd" d="M7.71977 3.08578C8.09484 2.71071 8.60355 2.5 9.13398 2.5H14.866C15.3965 2.5 15.9052 2.71071 16.2802 3.08578L20.9142 7.71977C21.2893 8.09484 21.5 8.60355 21.5 9.13398V14.866C21.5 15.3964 21.2893 15.9052 20.9142 16.2802L16.2802 20.9142C15.9052 21.2893 15.3965 21.5 14.866 21.5H9.13398C8.60355 21.5 8.09484 21.2893 7.71977 20.9142L3.08579 16.2802C2.71071 15.9052 2.5 15.3964 2.5 14.866V9.13398C2.5 8.60355 2.71071 8.09484 3.08579 7.71977L7.71977 3.08578ZM13.25 17.25C13.25 17.9404 12.6903 18.5 12 18.5C11.3096 18.5 10.75 17.9404 10.75 17.25C10.75 16.5596 11.3096 16 12 16C12.6903 16 13.25 16.5596 13.25 17.25ZM12 6C11.1862 6 10.5403 6.68503 10.5881 7.49741L10.9412 13.5017C10.9742 14.0623 11.4384 14.5 12 14.5C12.5615 14.5 13.0257 14.0623 13.0587 13.5017L13.4119 7.49741C13.4597 6.68503 12.8138 6 12 6Z" fill="#9747FF"/>
</svg>
