<svg width="24" height="24" viewBox="0 0 24 24" fill="none" xmlns="http://www.w3.org/2000/svg">
<path fill-rule="evenodd" clip-rule="evenodd" d="M10.6873 3.87566C11.258 2.84303 12.7424 2.84304 13.313 3.87566L21.2703 18.2745C21.8227 19.2742 21.0996 20.5 19.9574 20.5H4.04292C2.90067 20.5 2.17757 19.2742 2.73006 18.2745L10.6873 3.87566ZM13.25 17.75C13.25 18.4404 12.6904 19 12 19C11.3097 19 10.75 18.4404 10.75 17.75C10.75 17.0596 11.3097 16.5 12 16.5C12.6904 16.5 13.25 17.0596 13.25 17.75ZM12 7.5C11.1882 7.5 10.5458 8.1867 10.5998 8.99668L10.9335 14.0022C10.9709 14.5637 11.4373 15 12 15C12.5627 15 13.0291 14.5637 13.0665 14.0022L13.4002 8.99668C13.4542 8.1867 12.8118 7.5 12 7.5Z" fill="#9747FF"/>
</svg>
