<svg width="24" height="24" viewBox="0 0 24 24" fill="none" xmlns="http://www.w3.org/2000/svg">
<path d="M8.06066 3.43934C8.34196 3.15804 8.7235 3 9.12132 3H14.8787C15.2765 3 15.658 3.15804 15.9393 3.43934L20.5607 8.06066C20.842 8.34196 21 8.7235 21 9.12132V14.8787C21 15.2765 20.842 15.658 20.5607 15.9393L15.9393 20.5607C15.658 20.842 15.2765 21 14.8787 21H9.12132C8.7235 21 8.34196 20.842 8.06066 20.5607L3.43934 15.9393C3.15804 15.658 3 15.2765 3 14.8787V9.12132C3 8.7235 3.15804 8.34196 3.43934 8.06066L8.06066 3.43934Z" stroke="#9747FF" stroke-opacity="0.25" stroke-width="1.25"/>
<circle cx="12" cy="17" r="1" fill="#9747FF"/>
<path d="M10.815 7.74831C10.7797 7.06965 11.3204 6.5 12 6.5C12.6796 6.5 13.2203 7.06965 13.185 7.74831L12.8767 13.6678C12.8524 14.1343 12.4671 14.5 12 14.5C11.5329 14.5 11.1476 14.1342 11.1233 13.6678L10.815 7.74831Z" fill="#9747FF"/>
</svg>
