<svg width="24" height="24" viewBox="0 0 24 24" fill="none" xmlns="http://www.w3.org/2000/svg">
<mask id="path-1-inside-1_335_464" fill="white">
<path fill-rule="evenodd" clip-rule="evenodd" d="M22 12C22 17.5228 17.5228 22 12 22C6.47715 22 2 17.5228 2 12C2 6.47715 6.47715 2 12 2C17.5228 2 22 6.47715 22 12ZM13.25 17.25C13.25 17.9404 12.6903 18.5 12 18.5C11.3096 18.5 10.75 17.9404 10.75 17.25C10.75 16.5596 11.3096 16 12 16C12.6903 16 13.25 16.5596 13.25 17.25ZM12 6C11.1862 6 10.5403 6.68503 10.5881 7.49741L10.9412 13.5017C10.9742 14.0623 11.4384 14.5 12 14.5C12.5615 14.5 13.0257 14.0623 13.0587 13.5017L13.4119 7.49741C13.4597 6.68503 12.8138 6 12 6Z"/>
</mask>
<path fill-rule="evenodd" clip-rule="evenodd" d="M22 12C22 17.5228 17.5228 22 12 22C6.47715 22 2 17.5228 2 12C2 6.47715 6.47715 2 12 2C17.5228 2 22 6.47715 22 12ZM13.25 17.25C13.25 17.9404 12.6903 18.5 12 18.5C11.3096 18.5 10.75 17.9404 10.75 17.25C10.75 16.5596 11.3096 16 12 16C12.6903 16 13.25 16.5596 13.25 17.25ZM12 6C11.1862 6 10.5403 6.68503 10.5881 7.49741L10.9412 13.5017C10.9742 14.0623 11.4384 14.5 12 14.5C12.5615 14.5 13.0257 14.0623 13.0587 13.5017L13.4119 7.49741C13.4597 6.68503 12.8138 6 12 6Z" fill="#9747FF"/>
<path d="M10.5881 7.49741L9.09064 7.58549V7.5855L10.5881 7.49741ZM10.9412 13.5017L12.4387 13.4136V13.4136L10.9412 13.5017ZM13.0587 13.5017L14.5561 13.5898V13.5898L13.0587 13.5017ZM13.4119 7.49741L14.9093 7.58549L13.4119 7.49741ZM12 23.5C18.3513 23.5 23.5 18.3513 23.5 12H20.5C20.5 16.6944 16.6944 20.5 12 20.5V23.5ZM0.5 12C0.5 18.3513 5.64873 23.5 12 23.5V20.5C7.30558 20.5 3.5 16.6944 3.5 12H0.5ZM12 0.5C5.64873 0.5 0.5 5.64873 0.5 12H3.5C3.5 7.30558 7.30558 3.5 12 3.5V0.5ZM23.5 12C23.5 5.64873 18.3513 0.5 12 0.5V3.5C16.6944 3.5 20.5 7.30558 20.5 12H23.5ZM12 20C13.5188 20 14.75 18.7688 14.75 17.25H11.75C11.75 17.1119 11.8619 17 12 17V20ZM9.24998 17.25C9.24998 18.7688 10.4812 20 12 20V17C12.138 17 12.25 17.1119 12.25 17.25H9.24998ZM12 14.5C10.4812 14.5 9.24998 15.7312 9.24998 17.25H12.25C12.25 17.3881 12.138 17.5 12 17.5V14.5ZM14.75 17.25C14.75 15.7312 13.5188 14.5 12 14.5V17.5C11.8619 17.5 11.75 17.3881 11.75 17.25H14.75ZM12.0855 7.40933C12.0884 7.45852 12.0492 7.5 12 7.5V4.5C10.3231 4.5 8.99217 5.91155 9.09064 7.58549L12.0855 7.40933ZM12.4387 13.4136L12.0855 7.40933L9.09064 7.5855L9.44384 13.5898L12.4387 13.4136ZM12 13C12.2326 13 12.425 13.1814 12.4387 13.4136L9.44384 13.5898C9.52345 14.9432 10.6442 16 12 16V13ZM11.5613 13.4136C11.5749 13.1814 11.7673 13 12 13V16C13.3557 16 14.4765 14.9432 14.5561 13.5898L11.5613 13.4136ZM11.9145 7.40933L11.5613 13.4136L14.5561 13.5898L14.9093 7.58549L11.9145 7.40933ZM12 7.5C11.9507 7.5 11.9116 7.45852 11.9145 7.40933L14.9093 7.58549C15.0078 5.91155 13.6768 4.5 12 4.5V7.5Z" fill="#9747FF" mask="url(#path-1-inside-1_335_464)"/>
</svg>
