<svg width="24" height="24" viewBox="0 0 24 24" fill="none" xmlns="http://www.w3.org/2000/svg">
<path d="M10.6888 4.36022C11.2603 3.33151 12.7397 3.33151 13.3112 4.36022L20.762 17.7715C21.3174 18.7713 20.5945 20 19.4507 20H4.54927C3.40554 20 2.68259 18.7713 3.23804 17.7715L10.6888 4.36022Z" stroke="#9747FF" stroke-opacity="0.25" stroke-width="1.25"/>
<circle cx="12" cy="17" r="1" fill="#9747FF"/>
<path d="M10.8243 9.24779C10.784 8.57099 11.322 8 12 8C12.678 8 13.216 8.57099 13.1757 9.24779L12.8828 14.1681C12.855 14.6353 12.468 15 12 15C11.532 15 11.145 14.6353 11.1172 14.1681L10.8243 9.24779Z" fill="#9747FF"/>
</svg>
