<svg width="24" height="24" viewBox="0 0 24 24" fill="none" xmlns="http://www.w3.org/2000/svg">
<path fill-rule="evenodd" clip-rule="evenodd" d="M22 12C22 17.5228 17.5228 22 12 22C6.47715 22 2 17.5228 2 12C2 6.47715 6.47715 2 12 2C17.5228 2 22 6.47715 22 12ZM13.6568 10.3549C13.7016 10.1844 13.5606 10.0224 13.3856 10.0432L9.99909 10.4444L9.76465 11.1111L10.8215 11.2542C11.1275 11.2957 11.3231 11.6017 11.2323 11.8968L9.76465 16.6667C9.76465 16.6667 9.53021 18 10.9368 18C11.8745 18 13.3123 17.1111 14.25 16L13.7811 15.7778C13.7811 15.7778 12.9885 16.4314 12.3192 16.6177C12.1613 16.6616 12.0407 16.5117 12.0823 16.3532L13.6568 10.3549ZM13 8.75C13.8284 8.75 14.5 8.07843 14.5 7.25C14.5 6.42157 13.8284 5.75 13 5.75C12.1716 5.75 11.5 6.42157 11.5 7.25C11.5 8.07843 12.1716 8.75 13 8.75Z" fill="#9747FF"/>
</svg>
