<svg width="24" height="24" viewBox="0 0 24 24" fill="none" xmlns="http://www.w3.org/2000/svg">
<path fill-rule="evenodd" clip-rule="evenodd" d="M22 12C22 17.5228 17.5228 22 12 22C6.47715 22 2 17.5228 2 12C2 6.47715 6.47715 2 12 2C17.5228 2 22 6.47715 22 12ZM13.25 17.25C13.25 17.9404 12.6904 18.5 12 18.5C11.3096 18.5 10.75 17.9404 10.75 17.25C10.75 16.5596 11.3096 16 12 16C12.6904 16 13.25 16.5596 13.25 17.25ZM9.98601 9.1609C10.041 8.83573 10.2444 8.55339 10.6288 8.33346C11.0259 8.10628 11.5699 7.98028 12.1337 8.00251C12.6995 8.02482 13.1918 8.19209 13.5174 8.44271C13.8136 8.67079 14 8.98254 14 9.44929C14 9.60939 13.9393 9.79873 13.7353 10.0669C13.5197 10.3503 13.2178 10.6293 12.8269 10.9851L12.7965 11.0128C12.4428 11.3346 12.01 11.7283 11.6728 12.1716C11.3143 12.6429 11 13.25 11 14C11 14.5523 11.4477 15 12 15C12.5523 15 13 14.5523 13 14C13 13.8399 13.0607 13.6506 13.2647 13.3824C13.4803 13.099 13.7822 12.82 14.1731 12.4642L14.2035 12.4365L14.2035 12.4365C14.5572 12.1147 14.99 11.721 15.3272 11.2777C15.6857 10.8064 16 10.1993 16 9.44929C16 8.32328 15.4941 7.44047 14.7374 6.85796C14.0101 6.29799 13.089 6.03863 12.2125 6.00406C11.3339 5.96941 10.4068 6.15627 9.63562 6.59749C8.85177 7.04594 8.18979 7.78751 8.01399 8.82756C7.92194 9.37212 8.28877 9.88819 8.83333 9.98024C9.37789 10.0723 9.89396 9.70546 9.98601 9.1609Z" fill="#9747FF"/>
</svg>
