<svg width="24" height="24" viewBox="0 0 24 24" fill="none" xmlns="http://www.w3.org/2000/svg">
<path fill-rule="evenodd" clip-rule="evenodd" d="M10.9394 1.06065C11.5251 0.474861 12.4749 0.474861 13.0607 1.06065L22.9394 10.9393C23.5251 11.5251 23.5251 12.4749 22.9394 13.0606L13.0607 22.9393C12.4749 23.5251 11.5251 23.5251 10.9394 22.9393L1.06068 13.0606C0.474891 12.4749 0.474891 11.5251 1.06068 10.9393L10.9394 1.06065ZM13.25 17.75C13.25 18.4403 12.6904 19 12 19C11.3096 19 10.75 18.4403 10.75 17.75C10.75 17.0596 11.3096 16.5 12 16.5C12.6904 16.5 13.25 17.0596 13.25 17.75ZM9.98603 9.1609C10.041 8.83573 10.2444 8.55338 10.6288 8.33345C11.0259 8.10628 11.57 7.98027 12.1337 8.00251C12.6995 8.02482 13.1918 8.19209 13.5174 8.44271C13.8136 8.67079 14 8.98254 14 9.44929C14 9.60939 13.9393 9.79873 13.7354 10.0669C13.5198 10.3503 13.2178 10.6293 12.8269 10.9851L12.7965 11.0128L12.7965 11.0128C12.4428 11.3346 12.01 11.7283 11.6729 12.1716C11.3143 12.6429 11 13.25 11 14C11 14.5523 11.4477 15 12 15C12.5523 15 13 14.5523 13 14C13 13.8399 13.0607 13.6506 13.2647 13.3824C13.4803 13.099 13.7822 12.82 14.1731 12.4642L14.2035 12.4365C14.5573 12.1147 14.99 11.721 15.3272 11.2777C15.6857 10.8064 16 10.1993 16 9.44929C16 8.32328 15.4941 7.44047 14.7375 6.85796C14.0101 6.29799 13.089 6.03863 12.2125 6.00406C11.3339 5.96941 10.4068 6.15627 9.63564 6.59748C8.85178 7.04594 8.18981 7.78751 8.014 8.82756C7.92195 9.37212 8.28878 9.88819 8.83334 9.98024C9.3779 10.0723 9.89398 9.70546 9.98603 9.1609Z" fill="#9747FF"/>
</svg>
