<svg xmlns="http://www.w3.org/2000/svg" viewBox="0 0 24 24" width="1em" height="1em"><path d="M3 13.5A1.5 1.5 0 0 1 4.5 12h15a1.5 1.5 0 0 1 1.5 1.5v8a1.5 1.5 0 0 1-1.5 1.5h-15A1.5 1.5 0 0 1 3 21.5v-8Z" stroke-width="1.5" stroke-linejoin="round"/><path d="m20.75 12.5-1.302-1.86a1.5 1.5 0 0 0-1.229-.64H17M3.25 12.5l1.302-1.86A1.5 1.5 0 0 1 5.781 10H7" stroke-width="1.5" stroke-linecap="round" stroke-linejoin="round"/><path d="M17 12V4a1 1 0 0 0-1-1H8a1 1 0 0 0-1 1v8" stroke-width="1.5" stroke-linejoin="round"/><path d="M10 7.5 11 9l3-2.5" stroke-opacity=".5" stroke-width="1.5" stroke-linecap="round" stroke-linejoin="round"/></svg>