<svg xmlns="http://www.w3.org/2000/svg" viewBox="0 0 24 24" width="1em" height="1em"><path fill-rule="evenodd" clip-rule="evenodd" d="M8.5 23a7.5 7.5 0 1 0 0-15 7.5 7.5 0 0 0 0 15Zm.554-6.535a.842.842 0 0 1 .237.615c0 .267-.087.48-.263.642-.173.16-.426.241-.76.241-.34 0-.604-.1-.791-.303-.185-.202-.277-.488-.277-.857H6.132c0 .58.155 1.046.466 1.398.313.351.76.56 1.34.624v.852h.699v-.857c.542-.055.964-.237 1.265-.545.305-.307.457-.709.457-1.204 0-.263-.04-.493-.118-.69a1.574 1.574 0 0 0-.339-.518 2.226 2.226 0 0 0-.54-.404 6.741 6.741 0 0 0-.883-.383c-.375-.138-.642-.283-.8-.435-.156-.155-.233-.36-.233-.615 0-.284.079-.503.237-.655.158-.152.378-.228.66-.228.283 0 .508.106.672.32.167.211.25.501.25.87h1.064c0-.574-.14-1.04-.418-1.397-.278-.36-.672-.577-1.182-.65v-.967h-.703v.958c-.507.058-.908.245-1.204.558-.296.313-.444.713-.444 1.2 0 .717.341 1.26 1.024 1.626.205.111.492.233.861.364.37.13.633.276.791.44Z"/><path d="M9.794 6.146a6 6 0 1 1 7.915 7.433" stroke-width="1.25" stroke-linecap="round" stroke-linejoin="round"/><path d="M18.5 8.5h-3.25v-4" stroke-width="1.25" stroke-linecap="round" stroke-linejoin="round"/></svg>