<svg xmlns="http://www.w3.org/2000/svg" viewBox="0 0 24 24" width="1em" height="1em"><path fill-rule="evenodd" clip-rule="evenodd" d="M8.5 23a7.5 7.5 0 1 0 0-15 7.5 7.5 0 0 0 0 15Zm.762-6.505c.15.156.224.368.224.635 0 .257-.083.462-.249.615-.166.15-.392.225-.678.225-.345 0-.61-.103-.796-.308-.183-.208-.274-.506-.274-.893H6.08c0 .667.181 1.202.546 1.606.368.4.885.636 1.553.708v.967h.776v-.972c.606-.062 1.08-.265 1.426-.61.345-.345.518-.794.518-1.348 0-.296-.046-.555-.137-.776a1.78 1.78 0 0 0-.396-.596 2.678 2.678 0 0 0-.635-.469 8.44 8.44 0 0 0-.961-.444c-.388-.156-.653-.31-.796-.459-.144-.15-.215-.348-.215-.596 0-.267.073-.475.22-.625.146-.153.353-.23.62-.23.27 0 .485.098.644.294.163.192.244.483.244.874h1.412c0-.635-.163-1.15-.489-1.548-.325-.4-.776-.641-1.352-.723v-1.06h-.782v1.046c-.582.058-1.05.263-1.401.615-.352.351-.527.802-.527 1.352 0 .32.05.595.151.826.104.23.247.432.43.605.185.17.407.32.664.454.257.13.563.262.918.396.355.133.605.28.752.44Z"/><path d="M8.843 6.337a7 7 0 1 1 9.234 8.671" stroke-width="1.25" stroke-linecap="round" stroke-linejoin="round"/><path d="M18.5 8.5h-3.25v-4" stroke-width="1.25" stroke-linecap="round" stroke-linejoin="round"/></svg>