<svg xmlns="http://www.w3.org/2000/svg" viewBox="0 0 24 24" width="1em" height="1em"><path d="M13.309 4.216V3.108S13.309 2 11.924 2s-1.385 1.108-1.385 1.108V4.77m2.77-.554v7.254m0-7.254s0-1.108 1.384-1.108c1.385 0 1.385 1.108 1.385 1.108V14.74l1.662-3.324s.453-1.23 1.491-.91c1.039.32.724 1.464.724 1.464-1.107 4.985-3.255 10.524-8.308 10.524C6.662 22.494 5 19.171 5 16.401V6.985s0-1.108 1.385-1.108S7.77 6.985 7.77 6.985m2.769-2.215v6.7m0-6.7s0-1.108-1.385-1.108C7.77 3.662 7.77 4.77 7.77 4.77v2.215m0 0v5.035" stroke-width="1.25" stroke-linecap="round" stroke-linejoin="round"/></svg>