<svg xmlns="http://www.w3.org/2000/svg" viewBox="0 0 24 24" width="1em" height="1em"><path fill-rule="evenodd" clip-rule="evenodd" d="M13.09 1.208a2 2 0 0 0-2.18 0l-8 5.2A2 2 0 0 0 2 8.085v7.83a2 2 0 0 0 .91 1.677l8 5.2a2 2 0 0 0 2.18 0l8-5.2a2 2 0 0 0 .91-1.677v-7.83a2 2 0 0 0-.91-1.677l-8-5.2Zm-.618 5.15a.5.5 0 0 0-.944 0l-1.06 3.048a.5.5 0 0 1-.462.336l-3.225.066a.5.5 0 0 0-.292.898l2.57 1.95a.5.5 0 0 1 .177.542l-.934 3.088a.5.5 0 0 0 .764.555L11.714 15a.5.5 0 0 1 .572 0l2.648 1.842a.5.5 0 0 0 .764-.555l-.934-3.088a.5.5 0 0 1 .176-.543l2.571-1.95a.5.5 0 0 0-.292-.897l-3.225-.066a.5.5 0 0 1-.462-.336l-1.06-3.047Z"/></svg>