<svg xmlns="http://www.w3.org/2000/svg" viewBox="0 0 24 24" width="1em" height="1em"><path d="M11.182 1.031a1.5 1.5 0 0 1 1.636 0l8.5 5.525A1.5 1.5 0 0 1 22 7.814v8.372a1.5 1.5 0 0 1-.683 1.258l-8.5 5.525a1.5 1.5 0 0 1-1.635 0l-8.5-5.525A1.5 1.5 0 0 1 2 16.186V7.814a1.5 1.5 0 0 1 .683-1.258l8.5-5.525Z" stroke-opacity=".25" stroke-width="1.25"/><path d="M11.528 6.359a.5.5 0 0 1 .944 0l1.06 3.047a.5.5 0 0 0 .462.336l3.225.066a.5.5 0 0 1 .292.898l-2.57 1.949a.5.5 0 0 0-.177.543l.934 3.088a.5.5 0 0 1-.764.555L12.286 15a.5.5 0 0 0-.572 0L9.066 16.84a.5.5 0 0 1-.764-.555l.934-3.088a.5.5 0 0 0-.176-.543l-2.571-1.95a.5.5 0 0 1 .292-.897l3.225-.066a.5.5 0 0 0 .462-.336l1.06-3.047Z" stroke-width="1.25"/></svg>