<svg width="24" height="24" viewBox="0 0 24 24" fill="none" xmlns="http://www.w3.org/2000/svg">
<path fill-rule="evenodd" clip-rule="evenodd" d="M19.5 3C20.3284 3 21 3.67157 21 4.5V19.5C21 20.3284 20.3284 21 19.5 21H4.5C3.67157 21 3 20.3284 3 19.5V4.5C3 3.67157 3.67157 3 4.5 3H19.5ZM13.4697 13.4697C13.7626 13.1768 14.2374 13.1768 14.5303 13.4697L17.25 16.1893V14C17.25 13.5858 17.5858 13.25 18 13.25C18.4142 13.25 18.75 13.5858 18.75 14V18C18.75 18.4142 18.4142 18.75 18 18.75H14C13.5858 18.75 13.25 18.4142 13.25 18C13.25 17.5858 13.5858 17.25 14 17.25H16.1893L13.4697 14.5303C13.1768 14.2374 13.1768 13.7626 13.4697 13.4697ZM7.81066 6.75H10C10.4142 6.75 10.75 6.41421 10.75 6C10.75 5.58579 10.4142 5.25 10 5.25H6C5.58579 5.25 5.25 5.58579 5.25 6V10C5.25 10.4142 5.58579 10.75 6 10.75C6.41421 10.75 6.75 10.4142 6.75 10V7.81066L9.46967 10.5303C9.76256 10.8232 10.2374 10.8232 10.5303 10.5303C10.8232 10.2374 10.8232 9.76256 10.5303 9.46967L7.81066 6.75Z" fill="#9747FF"/>
</svg>
