<svg width="24" height="24" viewBox="0 0 24 24" fill="none" xmlns="http://www.w3.org/2000/svg">
<path fill-rule="evenodd" clip-rule="evenodd" d="M19.5 3C20.3284 3 21 3.67157 21 4.5V19.5C21 20.3284 20.3284 21 19.5 21H4.5C3.67157 21 3 20.3284 3 19.5V4.5C3 3.67157 3.67157 3 4.5 3H19.5ZM15.25 6.25C15.6642 6.25 16 6.58579 16 7V15.1893L17.7197 13.4697C18.0126 13.1768 18.4874 13.1768 18.7803 13.4697C19.0732 13.7626 19.0732 14.2374 18.7803 14.5303L15.7803 17.5303C15.4874 17.8232 15.0126 17.8232 14.7197 17.5303L11.7197 14.5303C11.4268 14.2374 11.4268 13.7626 11.7197 13.4697C12.0126 13.1768 12.4874 13.1768 12.7803 13.4697L14.5 15.1893V7C14.5 6.58579 14.8358 6.25 15.25 6.25ZM9.5 8.81066L11.2197 10.5303C11.5126 10.8232 11.9874 10.8232 12.2803 10.5303C12.5732 10.2374 12.5732 9.76256 12.2803 9.46967L9.28033 6.46967C8.98744 6.17678 8.51256 6.17678 8.21967 6.46967L5.21967 9.46967C4.92678 9.76256 4.92678 10.2374 5.21967 10.5303C5.51256 10.8232 5.98744 10.8232 6.28033 10.5303L8 8.81066V17C8 17.4142 8.33579 17.75 8.75 17.75C9.16421 17.75 9.5 17.4142 9.5 17V8.81066Z" fill="#9747FF"/>
</svg>
