<svg width="24" height="24" viewBox="0 0 24 24" fill="none" xmlns="http://www.w3.org/2000/svg">
<path fill-rule="evenodd" clip-rule="evenodd" d="M19.5 3C20.3284 3 21 3.67157 21 4.5V19.5C21 20.3284 20.3284 21 19.5 21H4.5C3.67157 21 3 20.3284 3 19.5V4.5C3 3.67157 3.67157 3 4.5 3H19.5ZM6.25 15.25C6.25 14.8358 6.58579 14.5 7 14.5H15.1893L13.4697 12.7803C13.1768 12.4874 13.1768 12.0126 13.4697 11.7197C13.7626 11.4268 14.2374 11.4268 14.5303 11.7197L17.5303 14.7197C17.8232 15.0126 17.8232 15.4874 17.5303 15.7803L14.5303 18.7803C14.2374 19.0732 13.7626 19.0732 13.4697 18.7803C13.1768 18.4874 13.1768 18.0126 13.4697 17.7197L15.1893 16H7C6.58579 16 6.25 15.6642 6.25 15.25ZM8.81066 8L10.5303 6.28033C10.8232 5.98744 10.8232 5.51256 10.5303 5.21967C10.2374 4.92678 9.76256 4.92678 9.46967 5.21967L6.46967 8.21967C6.17678 8.51256 6.17678 8.98744 6.46967 9.28033L9.46967 12.2803C9.76256 12.5732 10.2374 12.5732 10.5303 12.2803C10.8232 11.9874 10.8232 11.5126 10.5303 11.2197L8.81066 9.5H17C17.4142 9.5 17.75 9.16421 17.75 8.75C17.75 8.33579 17.4142 8 17 8H8.81066Z" fill="#9747FF"/>
</svg>
