<svg width="24" height="24" viewBox="0 0 24 24" fill="none" xmlns="http://www.w3.org/2000/svg">
<path fill-rule="evenodd" clip-rule="evenodd" d="M12 22C17.5228 22 22 17.5228 22 12C22 6.47715 17.5228 2 12 2C6.47715 2 2 6.47715 2 12C2 17.5228 6.47715 22 12 22ZM16.7071 10.2071C17.0976 9.81658 17.0976 9.18342 16.7071 8.79289C16.3166 8.40237 15.6834 8.40237 15.2929 8.79289L10.5 13.5858L9.20711 12.2929C8.81658 11.9024 8.18342 11.9024 7.79289 12.2929C7.40237 12.6834 7.40237 13.3166 7.79289 13.7071L9.79289 15.7071C10.1834 16.0976 10.8166 16.0976 11.2071 15.7071L16.7071 10.2071Z" fill="#9747FF"/>
</svg>
