<svg width="24" height="24" viewBox="0 0 24 24" fill="none" xmlns="http://www.w3.org/2000/svg">
<path fill-rule="evenodd" clip-rule="evenodd" d="M12 22C17.5228 22 22 17.5228 22 12C22 6.47715 17.5228 2 12 2C6.47715 2 2 6.47715 2 12C2 17.5228 6.47715 22 12 22ZM16.75 13.5C17.5784 13.5 18.25 12.8284 18.25 12C18.25 11.1716 17.5784 10.5 16.75 10.5C15.9216 10.5 15.25 11.1716 15.25 12C15.25 12.8284 15.9216 13.5 16.75 13.5ZM13.5 12C13.5 12.8284 12.8284 13.5 12 13.5C11.1716 13.5 10.5 12.8284 10.5 12C10.5 11.1716 11.1716 10.5 12 10.5C12.8284 10.5 13.5 11.1716 13.5 12ZM7.25 13.5C8.07843 13.5 8.75 12.8284 8.75 12C8.75 11.1716 8.07843 10.5 7.25 10.5C6.42157 10.5 5.75 11.1716 5.75 12C5.75 12.8284 6.42157 13.5 7.25 13.5Z" fill="#9747FF"/>
</svg>
