<svg xmlns="http://www.w3.org/2000/svg" viewBox="0 0 24 24" width="1em" height="1em"><path fill-rule="evenodd" clip-rule="evenodd" d="m17 24-1-2.5h2L17 24Z" fill-opacity=".25"/><path fill-rule="evenodd" clip-rule="evenodd" d="m17 16.428-2.63 5.738c-.087.184-.132.333-.323.333l-1.737.001c-.249 0-.386-.066-.266-.333l4.248-9.396c.087-.156.14-.271.332-.271h.752c.191 0 .245.115.332.271l4.247 9.396c.122.267-.016.333-.265.333h-1.737c-.191 0-.236-.15-.323-.334L17 16.428Z"/><path d="M17 9.5V5a3 3 0 0 0-3-3H6a3 3 0 0 0-3 3v14a3 3 0 0 0 3 3h3" stroke-width="1.25" stroke-linecap="round" stroke-linejoin="round"/><path d="M6 5.5h8M6 8h5M6 10.5h6M6 13h7M6 15.5h3" stroke-opacity=".5" stroke-linecap="round" stroke-linejoin="round"/></svg>