<svg width="24" height="24" viewBox="0 0 24 24" fill="none" xmlns="http://www.w3.org/2000/svg">
<path fill-rule="evenodd" clip-rule="evenodd" d="M12 21C16.9706 21 21 16.9706 21 12C21 7.02944 16.9706 3 12 3C7.02944 3 3 7.02944 3 12C3 16.9706 7.02944 21 12 21ZM13.125 6.5C13.125 6.15482 12.8452 5.875 12.5 5.875C12.1548 5.875 11.875 6.15482 11.875 6.5V11.875H7.5C7.15482 11.875 6.875 12.1548 6.875 12.5C6.875 12.8452 7.15482 13.125 7.5 13.125H12.5C12.8452 13.125 13.125 12.8452 13.125 12.5V6.5Z" fill="#9747FF"/>
</svg>
