<svg width="24" height="24" viewBox="0 0 24 24" fill="none" xmlns="http://www.w3.org/2000/svg">
<path fill-rule="evenodd" clip-rule="evenodd" d="M8.5 23C12.6421 23 16 19.6421 16 15.5C16 11.3579 12.6421 8 8.5 8C4.35786 8 1 11.3579 1 15.5C1 19.6421 4.35786 23 8.5 23ZM9.26172 16.4951C9.41146 16.6514 9.48633 16.863 9.48633 17.1299C9.48633 17.387 9.40332 17.5921 9.2373 17.7451C9.07129 17.8949 8.84505 17.9697 8.55859 17.9697C8.21354 17.9697 7.94824 17.8672 7.7627 17.6621C7.5804 17.4538 7.48926 17.1559 7.48926 16.7686H6.07812C6.07812 17.4359 6.26042 17.9714 6.625 18.375C6.99284 18.7754 7.51042 19.0114 8.17773 19.083V20.0498H8.9541V19.0781C9.55957 19.0163 10.0348 18.8128 10.3799 18.4678C10.7249 18.1227 10.8975 17.6735 10.8975 17.1201C10.8975 16.8239 10.8519 16.5651 10.7607 16.3438C10.6696 16.1191 10.5378 15.9206 10.3652 15.748C10.1927 15.5723 9.98112 15.416 9.73047 15.2793C9.47982 15.1393 9.15918 14.9912 8.76855 14.835C8.38119 14.6787 8.11589 14.5257 7.97266 14.376C7.82943 14.2262 7.75781 14.0277 7.75781 13.7803C7.75781 13.5133 7.83105 13.305 7.97754 13.1553C8.12402 13.0023 8.33073 12.9258 8.59766 12.9258C8.86784 12.9258 9.08268 13.0234 9.24219 13.2188C9.40495 13.4108 9.48633 13.7021 9.48633 14.0928H10.8975C10.8975 13.458 10.7347 12.9421 10.4092 12.5449C10.0837 12.1445 9.63281 11.9036 9.05664 11.8223V10.7627H8.27539V11.8076C7.69271 11.8662 7.22559 12.0713 6.87402 12.4229C6.52246 12.7744 6.34668 13.2253 6.34668 13.7754C6.34668 14.0944 6.39714 14.3695 6.49805 14.6006C6.60221 14.8317 6.74544 15.0335 6.92773 15.2061C7.11328 15.3753 7.33464 15.5267 7.5918 15.6602C7.84896 15.7904 8.15495 15.9222 8.50977 16.0557C8.86458 16.1891 9.11523 16.3356 9.26172 16.4951Z" fill="black"/>
<path d="M8.84285 6.33688C9.2072 5.21551 9.84891 4.20435 10.7084 3.39722C11.5679 2.59009 12.6174 2.01314 13.7594 1.71992C14.9014 1.42669 16.099 1.42669 17.2411 1.71992C18.3831 2.01314 19.4326 2.59009 20.2921 3.39722C21.1516 4.20435 21.7933 5.21552 22.1576 6.33688C22.522 7.45825 22.5972 8.65348 22.3763 9.81167C22.1553 10.9699 21.6454 12.0535 20.8938 12.962C20.1423 13.8705 19.1734 14.5744 18.0771 15.0084" stroke="black" stroke-width="1.25" stroke-linecap="round" stroke-linejoin="round"/>
<path d="M18.5 8.5H15.25V4.5" stroke="black" stroke-width="1.25" stroke-linecap="round" stroke-linejoin="round"/>
</svg>
