<svg width="24" height="24" viewBox="0 0 24 24" fill="none" xmlns="http://www.w3.org/2000/svg">
<path fill-rule="evenodd" clip-rule="evenodd" d="M8.5 23C12.6421 23 16 19.6421 16 15.5C16 11.3579 12.6421 8 8.5 8C4.35786 8 1 11.3579 1 15.5C1 19.6421 4.35786 23 8.5 23ZM9.0542 16.4648C9.2124 16.626 9.2915 16.8311 9.2915 17.0801C9.2915 17.3467 9.20361 17.5605 9.02783 17.7217C8.85498 17.8828 8.60156 17.9634 8.26758 17.9634C7.92773 17.9634 7.66406 17.8623 7.47656 17.6602C7.29199 17.458 7.19971 17.1724 7.19971 16.8032H6.13184C6.13184 17.3833 6.28711 17.8491 6.59766 18.2007C6.91113 18.5522 7.35791 18.7603 7.93799 18.8247V19.6772H8.63672V18.8203C9.17871 18.7646 9.60059 18.583 9.90234 18.2754C10.207 17.9678 10.3594 17.5664 10.3594 17.0713C10.3594 16.8076 10.3198 16.5776 10.2407 16.3813C10.1616 16.1851 10.0488 16.0122 9.90234 15.8628C9.75586 15.7104 9.57568 15.5757 9.36182 15.4585C9.14795 15.3413 8.85352 15.2139 8.47852 15.0762C8.10352 14.9385 7.83691 14.7935 7.67871 14.6411C7.52344 14.4858 7.4458 14.2808 7.4458 14.0259C7.4458 13.7417 7.5249 13.5234 7.68311 13.3711C7.84131 13.2188 8.06104 13.1426 8.34229 13.1426C8.62646 13.1426 8.85059 13.2495 9.01465 13.4634C9.18164 13.6743 9.26514 13.9644 9.26514 14.3335H10.3286C10.3286 13.7593 10.1895 13.2935 9.91113 12.936C9.63281 12.5757 9.23877 12.3589 8.729 12.2856V11.3188H8.02588V12.2769C7.51904 12.3354 7.11768 12.5215 6.82178 12.835C6.52588 13.1484 6.37793 13.5483 6.37793 14.0347C6.37793 14.7524 6.71924 15.2944 7.40186 15.6606C7.60693 15.772 7.89404 15.8936 8.26318 16.0254C8.63232 16.1543 8.896 16.3008 9.0542 16.4648Z" fill="black"/>
<path d="M9.79391 6.1459C10.1062 5.18473 10.6562 4.31801 11.393 3.62619C12.1297 2.93436 13.0292 2.43984 14.0081 2.1885C14.987 1.93717 16.0135 1.93717 16.9924 2.1885C17.9713 2.43984 18.8708 2.93436 19.6075 3.62619C20.3442 4.31802 20.8943 5.18473 21.2066 6.1459C21.5189 7.10707 21.5833 8.13156 21.394 9.12429C21.2046 10.117 20.7675 11.0458 20.1233 11.8245C19.4791 12.6033 18.6487 13.2066 17.709 13.5787" stroke="black" stroke-width="1.25" stroke-linecap="round" stroke-linejoin="round"/>
<path d="M18.5 8.5H15.25V4.5" stroke="black" stroke-width="1.25" stroke-linecap="round" stroke-linejoin="round"/>
</svg>
