<svg width="24" height="24" viewBox="0 0 24 24" fill="none" xmlns="http://www.w3.org/2000/svg">
<path fill-rule="evenodd" clip-rule="evenodd" d="M4 4C4 2.89543 4.89543 2 6 2H17C18.1046 2 19 2.89543 19 4V19C19 20.1046 18.1046 21 17 21H6C4.89543 21 4 20.1046 4 19V4ZM6.5 15C6.5 14.7239 6.72386 14.5 7 14.5H11C11.2761 14.5 11.5 14.7239 11.5 15C11.5 15.2761 11.2761 15.5 11 15.5H7C6.72386 15.5 6.5 15.2761 6.5 15ZM7 11.5C6.72386 11.5 6.5 11.7239 6.5 12C6.5 12.2761 6.72386 12.5 7 12.5H16C16.2761 12.5 16.5 12.2761 16.5 12C16.5 11.7239 16.2761 11.5 16 11.5H7ZM6.5 9C6.5 8.72386 6.72386 8.5 7 8.5H16C16.2761 8.5 16.5 8.72386 16.5 9C16.5 9.27614 16.2761 9.5 16 9.5H7C6.72386 9.5 6.5 9.27614 6.5 9ZM7 5.5C6.72386 5.5 6.5 5.72386 6.5 6C6.5 6.27614 6.72386 6.5 7 6.5H16C16.2761 6.5 16.5 6.27614 16.5 6C16.5 5.72386 16.2761 5.5 16 5.5H7Z" fill="#9747FF"/>
</svg>
