<svg width="24" height="24" viewBox="0 0 24 24" fill="none" xmlns="http://www.w3.org/2000/svg">
<path d="M1 14C1 14 4 13 5 13C6.76201 13 8.93055 14.371 9.93722 15.0824C10.3085 15.3448 10.7477 15.5 11.2023 15.5H13.5C16 15.5 15 18.5 15 18.5M1 20.5C1 20.5 8.5 22.5 11.0603 22.4742C14.0378 22.4441 21.5 18.5 21.5 18.5C21.5 18.5 22.5233 18.0467 22 17C21.4767 15.9533 20.5 16 20.5 16L15 18.5M15 18.5H9" stroke="#9747FF" stroke-width="1.25" stroke-linecap="round" stroke-linejoin="round"/>
<circle cx="13" cy="7" r="4" stroke="#9747FF" stroke-width="1.25"/>
</svg>
