<svg width="24" height="24" viewBox="0 0 24 24" fill="none" xmlns="http://www.w3.org/2000/svg">
<path d="M13.3085 4.21561V3.1078C13.3085 3.1078 13.3085 2 11.9238 2C10.539 2 10.539 3.1078 10.539 3.1078V4.76951M13.3085 4.21561V11.47M13.3085 4.21561C13.3085 4.21561 13.3085 3.1078 14.6933 3.1078C16.078 3.1078 16.078 4.21561 16.078 4.21561L16.078 14.7397L17.7397 11.4163C17.7397 11.4163 18.1925 10.1853 19.231 10.5054C20.2696 10.8255 19.9553 11.9702 19.9553 11.9702C18.8475 16.9553 16.7003 22.4944 11.6468 22.4944C6.6617 22.4944 5 19.1709 5 16.4014V6.98511C5 6.98511 5 5.87731 6.38475 5.87731C7.76951 5.87731 7.76951 6.98511 7.76951 6.98511M10.539 4.76951V11.47M10.539 4.76951C10.539 4.76951 10.539 3.6617 9.15426 3.6617C7.76951 3.6617 7.76951 4.76951 7.76951 4.76951V6.98511M7.76951 6.98511V12.02" stroke="#9747FF" stroke-width="1.25" stroke-linecap="round" stroke-linejoin="round"/>
</svg>
