<svg width="24" height="24" viewBox="0 0 24 24" fill="none" xmlns="http://www.w3.org/2000/svg">
<path fill-rule="evenodd" clip-rule="evenodd" d="M23 7C23 4.79086 21.2091 3 19 3H5C2.79086 3 1 4.79086 1 7V17C1 19.2091 2.79086 21 5 21H19C21.2091 21 23 19.2091 23 17V7ZM9 15.375C8.65482 15.375 8.375 15.6548 8.375 16C8.375 16.3452 8.65482 16.625 9 16.625H15C15.3452 16.625 15.625 16.3452 15.625 16C15.625 15.6548 15.3452 15.375 15 15.375H9ZM18.4419 8.44194C18.686 8.19786 18.686 7.80214 18.4419 7.55806C18.1979 7.31398 17.8021 7.31398 17.5581 7.55806L16.5 8.61612L15.4419 7.55806C15.1979 7.31398 14.8021 7.31398 14.5581 7.55806C14.314 7.80214 14.314 8.19786 14.5581 8.44194L15.6161 9.5L14.5581 10.5581C14.314 10.8021 14.314 11.1979 14.5581 11.4419C14.8021 11.686 15.1979 11.686 15.4419 11.4419L16.5 10.3839L17.5581 11.4419C17.8021 11.686 18.1979 11.686 18.4419 11.4419C18.686 11.1979 18.686 10.8021 18.4419 10.5581L17.3839 9.5L18.4419 8.44194ZM9.44194 7.55806C9.68602 7.80214 9.68602 8.19786 9.44194 8.44194L8.38388 9.5L9.44194 10.5581C9.68602 10.8021 9.68602 11.1979 9.44194 11.4419C9.19786 11.686 8.80214 11.686 8.55806 11.4419L7.5 10.3839L6.44194 11.4419C6.19786 11.686 5.80214 11.686 5.55806 11.4419C5.31398 11.1979 5.31398 10.8021 5.55806 10.5581L6.61612 9.5L5.55806 8.44194C5.31398 8.19786 5.31398 7.80214 5.55806 7.55806C5.80214 7.31398 6.19786 7.31398 6.44194 7.55806L7.5 8.61612L8.55806 7.55806C8.80214 7.31398 9.19786 7.31398 9.44194 7.55806Z" fill="#9747FF"/>
</svg>
