<svg width="24" height="24" viewBox="0 0 24 24" fill="none" xmlns="http://www.w3.org/2000/svg">
<path d="M11.5277 2.10869C11.6834 1.66091 12.3166 1.66091 12.4723 2.10869L14.5308 8.03078C14.5995 8.22832 14.7838 8.36225 14.9929 8.36651L21.2612 8.49425C21.7352 8.50391 21.9309 9.10618 21.5531 9.39258L16.557 13.1804C16.3904 13.3067 16.3199 13.5234 16.3805 13.7236L18.196 19.7246C18.3333 20.1784 17.821 20.5506 17.4319 20.2798L12.2856 16.6987C12.1139 16.5793 11.8861 16.5793 11.7144 16.6987L6.56812 20.2798C6.179 20.5506 5.66668 20.1784 5.80395 19.7246L7.61949 13.7236C7.68005 13.5234 7.60964 13.3067 7.44299 13.1804L2.44687 9.39258C2.0691 9.10618 2.26479 8.50391 2.73875 8.49425L9.00711 8.36651C9.21619 8.36225 9.40054 8.22832 9.4692 8.03078L11.5277 2.10869Z" fill="#9747FF"/>
</svg>
