<svg width="24" height="24" viewBox="0 0 24 24" fill="none" xmlns="http://www.w3.org/2000/svg">
<path d="M11.1825 1.03136C11.6796 0.708252 12.3204 0.708251 12.8175 1.03136L21.3175 6.55636C21.7432 6.83306 22 7.30632 22 7.81403V16.186C22 16.6937 21.7432 17.1669 21.3175 17.4436L12.8175 22.9686C12.3204 23.2917 11.6796 23.2917 11.1825 22.9686L2.68252 17.4436C2.25683 17.1669 2 16.6937 2 16.186V7.81403C2 7.30632 2.25683 6.83306 2.68252 6.55636L11.1825 1.03136Z" stroke="black" stroke-opacity="0.25" stroke-width="1.25"/>
<path d="M11.5277 6.35869C11.6834 5.91091 12.3166 5.91091 12.4723 6.35869L13.5316 9.40611C13.6002 9.60364 13.7846 9.73758 13.9937 9.74184L17.2193 9.80757C17.6932 9.81723 17.8889 10.4195 17.5111 10.7059L14.9402 12.655C14.7736 12.7814 14.7032 12.9981 14.7637 13.1983L15.698 16.2863C15.8352 16.7401 15.3229 17.1123 14.9338 16.8415L12.2856 14.9987C12.1139 14.8793 11.8861 14.8793 11.7144 14.9987L9.06621 16.8415C8.67709 17.1123 8.16476 16.7401 8.30204 16.2863L9.23629 13.1983C9.29685 12.9981 9.22643 12.7814 9.05979 12.655L6.48886 10.7059C6.11109 10.4195 6.30678 9.81723 6.78074 9.80757L10.0063 9.74184C10.2154 9.73758 10.3998 9.60365 10.4684 9.40611L11.5277 6.35869Z" stroke="black" stroke-width="1.25"/>
</svg>
