<svg width="24" height="24" viewBox="0 0 24 24" fill="none" xmlns="http://www.w3.org/2000/svg">
<path d="M11.5277 2.35869C11.6834 1.91091 12.3166 1.91091 12.4723 2.35869L14.472 8.11168C14.5407 8.30922 14.725 8.44315 14.9341 8.44741L21.0235 8.57151C21.4974 8.58116 21.6931 9.18344 21.3154 9.46984L16.4619 13.1495C16.2953 13.2758 16.2248 13.4925 16.2854 13.6927L18.0491 19.5224C18.1864 19.9761 17.6741 20.3484 17.2849 20.0776L12.2856 16.5987C12.1139 16.4793 11.8861 16.4793 11.7144 16.5987L6.71507 20.0776C6.32595 20.3484 5.81362 19.9761 5.9509 19.5224L7.7146 13.6927C7.77516 13.4925 7.70474 13.2758 7.53809 13.1495L2.68463 9.46984C2.30686 9.18344 2.50255 8.58116 2.97652 8.57151L9.06589 8.44741C9.27497 8.44315 9.45932 8.30922 9.52798 8.11168L11.5277 2.35869Z" stroke="#9747FF" stroke-width="1.25"/>
</svg>
