<svg width="24" height="24" viewBox="0 0 24 24" fill="none" xmlns="http://www.w3.org/2000/svg">
<path fill-rule="evenodd" clip-rule="evenodd" d="M13.09 1.20849C12.4272 0.777671 11.5728 0.777672 10.91 1.20849L2.91002 6.40849C2.34244 6.77742 2 7.40842 2 8.08538V15.9146C2 16.5916 2.34244 17.2226 2.91002 17.5915L10.91 22.7915C11.5728 23.2223 12.4272 23.2223 13.09 22.7915L21.09 17.5915C21.6576 17.2226 22 16.5916 22 15.9146V8.08538C22 7.40842 21.6576 6.77742 21.09 6.40849L13.09 1.20849ZM12.4723 6.3587C12.3166 5.91092 11.6834 5.91092 11.5277 6.3587L10.4684 9.40611C10.3998 9.60365 10.2154 9.73758 10.0063 9.74185L6.78074 9.80758C6.30678 9.81724 6.11109 10.4195 6.48886 10.7059L9.05979 12.6551C9.22643 12.7814 9.29685 12.9981 9.23629 13.1983L8.30204 16.2863C8.16476 16.7401 8.67709 17.1123 9.06621 16.8415L11.7144 14.9987C11.8861 14.8793 12.1139 14.8793 12.2856 14.9987L14.9338 16.8415C15.3229 17.1123 15.8352 16.7401 15.698 16.2863L14.7637 13.1983C14.7032 12.9981 14.7736 12.7814 14.9402 12.6551L17.5111 10.7059C17.8889 10.4195 17.6932 9.81724 17.2193 9.80758L13.9937 9.74185C13.7846 9.73758 13.6002 9.60365 13.5316 9.40611L12.4723 6.3587Z" fill="black"/>
</svg>
