<svg width="24" height="24" viewBox="0 0 24 24" fill="none" xmlns="http://www.w3.org/2000/svg">
<path fill-rule="evenodd" clip-rule="evenodd" d="M5 4C3.61929 4 2.5 5.11929 2.5 6.5V17.5C2.5 18.8807 3.61929 20 5 20H6.75V22.7182C6.75 23.136 7.23193 23.3695 7.55982 23.1107L11.5 20H19C20.3807 20 21.5 18.8807 21.5 17.5V6.5C21.5 5.11929 20.3807 4 19 4H5ZM7 9C6.72386 9 6.5 9.22386 6.5 9.5C6.5 9.77614 6.72386 10 7 10H17C17.2761 10 17.5 9.77614 17.5 9.5C17.5 9.22386 17.2761 9 17 9H7ZM6.5 12C6.5 11.7239 6.72386 11.5 7 11.5H17C17.2761 11.5 17.5 11.7239 17.5 12C17.5 12.2761 17.2761 12.5 17 12.5H7C6.72386 12.5 6.5 12.2761 6.5 12ZM7 14C6.72386 14 6.5 14.2239 6.5 14.5C6.5 14.7761 6.72386 15 7 15H14C14.2761 15 14.5 14.7761 14.5 14.5C14.5 14.2239 14.2761 14 14 14H7Z" fill="black"/>
</svg>
