<svg width="24" height="24" viewBox="0 0 24 24" fill="none" xmlns="http://www.w3.org/2000/svg">
<path fill-rule="evenodd" clip-rule="evenodd" d="M5.5 4.5C4.11929 4.5 3 5.61929 3 7V17C3 18.3807 4.11929 19.5 5.5 19.5H7V21.9777C7 22.3938 7.47854 22.6278 7.80697 22.3724L11.5 19.5H18.5C19.8807 19.5 21 18.3807 21 17V7C21 5.61929 19.8807 4.5 18.5 4.5H5.5ZM7 9C6.72386 9 6.5 9.22386 6.5 9.5C6.5 9.77614 6.72386 10 7 10H17C17.2761 10 17.5 9.77614 17.5 9.5C17.5 9.22386 17.2761 9 17 9H7ZM6.5 12C6.5 11.7239 6.72386 11.5 7 11.5H17C17.2761 11.5 17.5 11.7239 17.5 12C17.5 12.2761 17.2761 12.5 17 12.5H7C6.72386 12.5 6.5 12.2761 6.5 12ZM7 14C6.72386 14 6.5 14.2239 6.5 14.5C6.5 14.7761 6.72386 15 7 15H14C14.2761 15 14.5 14.7761 14.5 14.5C14.5 14.2239 14.2761 14 14 14H7Z" fill="#9747FF"/>
</svg>
