<svg width="24" height="24" viewBox="0 0 24 24" fill="none" xmlns="http://www.w3.org/2000/svg">
<path d="M4.71885 6.70993C3.5306 8.34542 2.92757 10.3333 3.00694 12.3533C3.0863 14.3733 3.84344 16.3078 5.15635 17.845C6.46925 19.3822 8.26146 20.4327 10.2442 20.8271C12.2269 21.2215 14.2847 20.9368 16.0859 20.0191C17.8871 19.1013 19.3269 17.6038 20.1733 15.7679C21.0196 13.9321 21.2233 11.8647 20.7513 9.89899C20.2794 7.93328 19.1594 6.18369 17.5718 4.93215C15.9843 3.68061 14.0216 3 12 3V6.375" stroke="black" stroke-width="1.25" stroke-linecap="round" stroke-linejoin="round"/>
<path d="M12.884 11.0906C13.3721 11.5787 13.3721 12.3702 12.884 12.8583C12.3958 13.3465 11.6043 13.3465 11.1162 12.8583C10.7661 12.5082 8.58491 9.41762 7.37946 7.69788C7.21937 7.4695 7.49514 7.19373 7.72352 7.35382C9.44326 8.55927 12.5338 10.7404 12.884 11.0906Z" fill="black"/>
</svg>
