<svg xmlns="http://www.w3.org/2000/svg" viewBox="0 0 24 24" width="1em" height="1em"><path fill-rule="evenodd" clip-rule="evenodd" d="M19.5 3A1.5 1.5 0 0 1 21 4.5v15a1.5 1.5 0 0 1-1.5 1.5h-15A1.5 1.5 0 0 1 3 19.5v-15A1.5 1.5 0 0 1 4.5 3h15Zm-6.03 10.47a.75.75 0 0 1 1.06 0l2.72 2.72V14a.75.75 0 0 1 1.5 0v4a.75.75 0 0 1-.75.75h-4a.75.75 0 0 1 0-1.5h2.19l-2.72-2.72a.75.75 0 0 1 0-1.06ZM7.81 6.75H10a.75.75 0 0 0 0-1.5H6a.75.75 0 0 0-.75.75v4a.75.75 0 0 0 1.5 0V7.81l2.72 2.72a.75.75 0 1 0 1.06-1.06L7.81 6.75Z"/></svg>