<svg xmlns="http://www.w3.org/2000/svg" viewBox="0 0 24 24" width="1em" height="1em"><path fill-rule="evenodd" clip-rule="evenodd" d="M19.5 3A1.5 1.5 0 0 1 21 4.5v15a1.5 1.5 0 0 1-1.5 1.5h-15A1.5 1.5 0 0 1 3 19.5v-15A1.5 1.5 0 0 1 4.5 3h15Zm-4.25 3.25A.75.75 0 0 1 16 7v8.19l1.72-1.72a.75.75 0 1 1 1.06 1.06l-3 3a.75.75 0 0 1-1.06 0l-3-3a.75.75 0 1 1 1.06-1.06l1.72 1.72V7a.75.75 0 0 1 .75-.75ZM9.5 8.81l1.72 1.72a.75.75 0 1 0 1.06-1.06l-3-3a.75.75 0 0 0-1.06 0l-3 3a.75.75 0 1 0 1.06 1.06L8 8.81V17a.75.75 0 0 0 1.5 0V8.81Z"/></svg>